<mxfile host="app.diagrams.net" modified="2023-12-19T12:41:48.763Z" agent="Mozilla/5.0 (Windows NT 10.0; Win64; x64) AppleWebKit/537.36 (KHTML, like Gecko) Chrome/120.0.0.0 Safari/537.36" version="22.1.11" etag="IFIeGgYFK3zsxiTQ3SIY" type="github">
  <diagram name="第 1 页" id="FqNaBJhryyRg5g9cicO9">
    <mxGraphModel>
      <root>
        <mxCell id="0" />
        <mxCell id="1" parent="0" />
      </root>
    </mxGraphModel>
  </diagram>
</mxfile>
